<?xml version="1.0" encoding="UTF-8"?>
<svg version="1.1" xmlns="http://www.w3.org/2000/svg" width="642" height="658">
<path d="M0 0 C211.86 0 423.72 0 642 0 C642 217.14 642 434.28 642 658 C430.14 658 218.28 658 0 658 C0 440.86 0 223.72 0 0 Z " fill="#001C3C" transform="translate(0,0)"/>
<path d="M0 0 C211.86 0 423.72 0 642 0 C642 217.14 642 434.28 642 658 C430.14 658 218.28 658 0 658 C0 440.86 0 223.72 0 0 Z M83 38 C82.26719315 38.26980682 81.53438629 38.53961365 80.77937317 38.81759644 C62.1084508 46.41559184 47.76864517 61.08957583 39 79 C35.34730133 87.7021992 32.87828703 96.40271669 32.86857224 105.86993313 C32.8665196 106.55192259 32.86446697 107.23391206 32.86235213 107.93656787 C32.85668839 110.22656451 32.85813862 112.51650089 32.85955811 114.8065033 C32.85697409 116.46313612 32.85396083 118.11976833 32.8505547 119.77639967 C32.84248536 124.3329117 32.84069516 128.88940798 32.83995724 133.44592631 C32.83810651 138.35890349 32.83055897 143.27187251 32.82382202 148.18484497 C32.81023753 158.93101284 32.80421349 169.67717698 32.79981136 180.423352 C32.79704852 187.13510069 32.79281103 193.84684794 32.78830719 200.55859566 C32.77611321 219.14550022 32.76581491 237.73240362 32.7624321 256.3193121 C32.76221253 257.50906196 32.76199297 258.69881182 32.76176675 259.9246147 C32.76154847 261.11720181 32.76133019 262.30978892 32.7611053 263.53851503 C32.76066183 265.95512005 32.76021527 268.37172506 32.75976562 270.78833008 C32.7595442 271.98704798 32.75932277 273.18576588 32.75909463 274.42080856 C32.75514878 293.83326235 32.73770184 313.24567855 32.7144061 332.65811782 C32.6906756 352.59402399 32.67822943 372.5299113 32.67706418 392.46583182 C32.67614825 403.65679156 32.67041682 414.84770236 32.65224457 426.03864861 C32.63682051 435.57077458 32.63173664 445.10283648 32.63998267 454.63497256 C32.64388131 459.49540454 32.64299811 464.35570759 32.62892532 469.21612358 C32.61613897 473.67316696 32.61742526 478.12998517 32.62951604 482.58702845 C32.63146489 484.19209944 32.62843248 485.79718664 32.61967167 487.4022349 C32.50208469 510.41824185 39.08084492 531.44561571 55.203125 548.3984375 C72.93776981 564.89462946 93.1886215 570.63981715 116.71742249 570.50120544 C118.56830551 570.505106 120.41918553 570.51075246 122.27005857 570.51797634 C127.31715318 570.53264036 132.36393291 570.52260394 137.41101706 570.50823963 C142.86916501 570.497082 148.3272705 570.5090882 153.78541565 570.51808167 C164.46225236 570.53198332 175.13897044 570.52448079 185.81580145 570.50940608 C198.2593455 570.49250855 210.70286032 570.49576095 223.14641231 570.49950016 C246.02421661 570.50555032 268.90196795 570.48979839 291.77975521 570.46431253 C312.6403807 570.44119685 333.50093685 570.43581138 354.36157227 570.44604492 C377.82974227 570.45747423 401.297882 570.45937305 424.76605219 570.44494683 C427.27012058 570.44342105 429.77418897 570.44190069 432.27825737 570.44038582 C433.51018398 570.439628 434.7421106 570.43887019 436.01136832 570.43808941 C444.67774576 570.43335392 453.3441075 570.43519279 462.0104847 570.43945122 C472.57626749 570.44438615 483.1419787 570.43835652 493.70774514 570.41855692 C499.09480198 570.40870941 504.48174998 570.40355235 509.86881256 570.41144943 C514.80657435 570.4185396 519.74411718 570.411624 524.68185025 570.3938458 C526.4615812 570.38982288 528.24133232 570.39076464 530.02105559 570.39736467 C553.56065254 570.4771432 574.91705471 564.44310423 592.3984375 547.79296875 C605.83204064 533.37100742 614.10510466 514.64037079 614.13422108 494.88676453 C614.13657331 494.20276697 614.13892554 493.51876941 614.14134905 492.81404465 C614.14798936 490.52925246 614.14758234 488.24451779 614.14717102 485.9597168 C614.15047274 484.30207038 614.15419895 482.64442477 614.1583125 480.98678017 C614.16830546 476.43671935 614.17204492 471.88667173 614.17470181 467.3366015 C614.17861285 462.42704731 614.18819056 457.51750348 614.19691467 452.60795593 C614.21665554 440.7545639 614.22674185 428.90117104 614.23564246 417.04776669 C614.24002888 411.46204002 614.24539474 405.8763143 614.25063133 400.29058838 C614.26764053 381.71647336 614.28213429 363.14235892 614.28938007 344.5682373 C614.29128988 339.75073241 614.29321022 334.93322753 614.29516602 330.11572266 C614.29564976 328.91839807 614.2961335 327.72107348 614.2966319 326.48746634 C614.30493076 307.09520266 614.33026667 287.70300069 614.36274669 268.31076396 C614.39584014 248.38948007 614.41383087 228.46822752 614.41702431 208.54691601 C614.41918719 197.36655536 614.42790339 186.18628474 614.45348549 175.00595093 C614.47522361 165.48377146 614.48322754 155.96170389 614.47351871 146.43950242 C614.46898318 141.58496921 614.47081674 136.73066674 614.49028015 131.87616539 C614.50797794 127.42341111 614.50686083 122.97105478 614.49138286 118.51829588 C614.4890168 116.91595595 614.49327774 115.31358796 614.50521151 113.71129072 C614.66603086 90.67336841 606.55932606 71.57011219 590.8515625 54.69140625 C570.94532649 35.71018121 546.1450513 33.54075491 520.08447266 33.65942383 C517.47160349 33.66027112 514.85873362 33.65979296 512.24586487 33.65809631 C506.64481901 33.65653192 501.04387891 33.66585315 495.44285965 33.68280983 C487.34498896 33.70730944 479.24716882 33.71501624 471.1492651 33.7187738 C458.00735877 33.72532121 444.86550866 33.74523564 431.72363281 33.77368164 C418.96614867 33.80126671 406.20867986 33.82247845 393.45117188 33.83520508 C392.66329618 33.83599325 391.87542048 33.83678142 391.06366976 33.83759347 C387.11067985 33.84150891 383.15768984 33.84529996 379.20469975 33.84902918 C346.46975892 33.88007174 313.73488702 33.93286057 281 34 C280.99641747 35.49087442 280.99641747 35.49087442 280.99276257 37.01186752 C280.93389893 61.22557516 280.8579737 85.43918384 280.76428509 109.65278244 C280.71937014 121.36242522 280.67994553 133.07203787 280.65356445 144.78173828 C280.63054957 154.99105332 280.59711252 165.20027269 280.55129844 175.4095118 C280.52741336 180.81236697 280.50865368 186.21512766 280.50238609 191.61803436 C280.49631392 196.71027543 280.47623722 201.80227492 280.44572449 206.89442635 C280.43697836 208.75671012 280.43321453 210.6190255 280.43499184 212.48132896 C280.44147489 222.41473946 280.12038077 231.45279893 277 241 C276.43539062 242.79630859 276.43539062 242.79630859 275.859375 244.62890625 C267.24732043 267.40233223 250.88439636 282.22138557 229.05517578 292.11572266 C220.05984526 295.98612978 210.72501361 298.75912289 201 300 C200.15179688 300.11085938 199.30359375 300.22171875 198.4296875 300.3359375 C180.53528399 302.22224214 163.46940079 301.17240395 146 297 C144.98703857 296.76772705 144.98703857 296.76772705 143.95361328 296.53076172 C125.075591 292.12019144 106.7249104 281.70131321 95.85400391 265.26757812 C86.7109061 250.3985403 84.16232804 235.43492059 83 218 C103.79 218 124.58 218 146 218 C146.495 224.435 146.495 224.435 147 231 C149.27158765 239.54549639 152.48731603 245.14538698 159.51171875 250.60546875 C166.32697392 254.42500736 173.07642986 255.55775426 180.8125 255.5 C181.68471191 255.49572998 182.55692383 255.49145996 183.45556641 255.48706055 C190.76041535 255.29546905 196.67984647 253.79209212 203 250 C203.91265625 249.45859375 203.91265625 249.45859375 204.84375 248.90625 C212.30375944 243.57767183 216.29100778 233.70044503 218 225 C218.4261709 218.77553225 218.37996813 212.56781454 218.34057617 206.33154297 C218.33972889 204.44831862 218.34020701 202.56509328 218.34190369 200.68186951 C218.34276113 195.59369313 218.32517611 190.5057308 218.30418181 185.41760397 C218.28537305 180.09116813 218.28366127 174.76472687 218.28010559 169.43826294 C218.27079745 159.36270617 218.24620034 149.28724757 218.21605712 139.21173394 C218.18247477 127.7365226 218.16601746 116.26130647 218.15097082 104.78605819 C218.11964969 81.19065113 218.06691316 57.59533108 218 34 C202.61306966 33.90616558 187.22616101 33.83583059 171.83901119 33.79275131 C164.69295062 33.77220873 157.5470688 33.74424921 150.40112305 33.69824219 C144.16584137 33.65811766 137.93068926 33.632507 131.69528204 33.62364602 C128.39982493 33.61847404 125.10482032 33.60433046 121.80946159 33.57707977 C102.04703934 33.34482233 102.04703934 33.34482233 83 38 Z " fill="#0B6FC3" transform="translate(0,0)"/>
<path d="M0 0 C0.80566406 0.03335449 1.61132812 0.06670898 2.44140625 0.10107422 C24.56965947 1.25399976 47.2929949 9.4708168 64 24 C65.010625 24.763125 66.02125 25.52625 67.0625 26.3125 C71.56447137 30.43132487 75.22944099 35.21557956 79 40 C78.26394531 40.73476562 77.52789063 41.46953125 76.76953125 42.2265625 C75.11573722 43.8826891 73.46586349 45.54276708 71.82421875 47.2109375 C67.80899388 51.2775455 63.73194641 55.17548485 59.39453125 58.89453125 C53.81470367 63.80077442 48.42960326 68.92881156 43 74 C40.04799613 72.68870214 38.24132462 71.35697382 36.125 68.9375 C24.78225243 57.40250247 7.86006997 49.65519314 -8.296875 48.83203125 C-19.75204804 48.76723955 -31.7608571 49.39179158 -40.703125 57.5546875 C-44.72101436 62.19604245 -45.40829931 65.97758512 -45 72 C-42.64079425 78.80006363 -38.09884871 82.41981784 -31.8515625 85.60546875 C-21.64964639 90.16592794 -11.37229705 92.64451881 -0.37573242 94.53271484 C10.083245 96.37926769 19.895486 99.06104036 29.8125 102.875 C30.85422363 103.27340088 31.89594727 103.67180176 32.96923828 104.08227539 C52.54951798 111.92911871 69.43912664 123.88791218 78.55078125 143.3046875 C85.23064182 160.5029764 83.2419254 180.10273019 76.40625 196.93359375 C67.96080075 215.34936502 51.50006337 227.81944378 33 235 C17.41042983 240.75022063 2.5719827 242.41039516 -13.9375 242.375 C-14.80139343 242.37512085 -15.66528687 242.3752417 -16.55535889 242.37536621 C-29.75508685 242.34905792 -42.22097658 241.54094662 -55 238 C-56.16789062 237.71125 -57.33578125 237.4225 -58.5390625 237.125 C-83.23815011 230.39434839 -101.4755199 214.92276374 -119 197 C-117.5158627 193.51345524 -115.53785948 191.35808928 -112.8125 188.75 C-109.30232348 185.38121413 -106.08690622 181.85206659 -102.90258789 178.18066406 C-99.60092573 174.3964415 -96.21831306 170.6904303 -92.8125 167 C-92.11447266 166.22527344 -91.41644531 165.45054687 -90.69726562 164.65234375 C-90.01986328 163.92144531 -89.34246094 163.19054687 -88.64453125 162.4375 C-88.03971924 161.77621094 -87.43490723 161.11492187 -86.81176758 160.43359375 C-85 159 -85 159 -81 159 C-79.32763672 160.35766602 -79.32763672 160.35766602 -77.6796875 162.25390625 C-77.06730225 162.9404126 -76.45491699 163.62691895 -75.82397461 164.33422852 C-75.18081299 165.06955811 -74.53765137 165.8048877 -73.875 166.5625 C-68.37340001 172.61908306 -63.19051466 177.9505473 -56 182 C-54.95714844 182.60070312 -53.91429687 183.20140625 -52.83984375 183.8203125 C-39.96172843 190.76026641 -27.81244789 193.32653365 -13.25 193.4375 C-11.70638794 193.4528479 -11.70638794 193.4528479 -10.1315918 193.46850586 C-0.79254542 193.36172696 9.71756077 192.37213433 17 186 C20.42917072 182.30010527 21.29969749 179.4207651 21.5 174.5 C21.23709847 168.03262235 18.95312143 164.95312143 14.4375 160.4375 C3.90948575 152.1843833 -10.87010712 148.83165795 -23.6875 146.25 C-51.36264777 140.33922929 -79.11761083 132.09357135 -96.54296875 108.30859375 C-103.54847159 97.20872196 -106.56305154 85.64578204 -106.4375 72.625 C-106.42920166 71.51809814 -106.42090332 70.41119629 -106.41235352 69.27075195 C-106.25238675 61.56217543 -105.59004028 54.93578787 -102 48 C-101.50242187 47.00355469 -101.00484375 46.00710937 -100.4921875 44.98046875 C-88.80675883 23.37601342 -68.8392424 11.02103371 -46 4 C-30.79737498 -0.4200511 -15.73337517 -0.68872797 0 0 Z " fill="#FDC91A" transform="translate(459,59)"/>
<path d="M0 0 C100.41304348 0 100.41304348 0 114.25 12.5625 C124.43475912 23.40833882 125.55314634 35.33263292 125.33984375 49.4140625 C124.90311968 60.23249704 120.5383586 69.20867635 113 77 C109.40134529 80 109.40134529 80 107 80 C107 80.66 107 81.32 107 82 C107.66 82.20625 108.32 82.4125 109 82.625 C120.84999572 88.05624804 128.44242406 98.06814883 133 110 C134.49791368 114.49374103 134.18441536 118.9178429 134.1875 123.625 C134.19974609 124.58535156 134.21199219 125.54570312 134.22460938 126.53515625 C134.25518988 141.56037953 129.75667656 153.70411922 119.4140625 164.68359375 C90.80011726 191.55278623 23.1580875 179 0 179 C0 119.93 0 60.86 0 0 Z " fill="#FDC91A" transform="translate(247,345)"/>
<path d="M0 0 C13.53 0 27.06 0 41 0 C41.0093457 3.46161621 41.01869141 6.92323242 41.02832031 10.48974609 C41.06213366 21.94508121 41.11750757 33.40025618 41.18390274 44.85544395 C41.22362264 51.7986525 41.25605071 58.74174887 41.27099609 65.68505859 C41.28544838 72.38959009 41.32063983 79.09372367 41.36830902 85.79811478 C41.38311123 88.35203651 41.39104034 90.9060079 41.39188385 93.45997238 C41.3942586 97.04579212 41.42138184 100.63065461 41.45410156 104.21630859 C41.4490712 105.2650415 41.44404083 106.31377441 41.43885803 107.39428711 C41.57691792 117.21617614 44.53358146 126.43791914 51.5625 133.58984375 C58.09538763 139.55402018 64.12386721 141.55941952 72.9453125 141.2734375 C82.38215325 140.42870751 88.72309403 137.18827678 95 130 C96.66915836 127.42769929 97.89990388 124.85568993 99 122 C99.33980581 121.23864903 99.67961163 120.47729807 100.02971458 119.69287586 C101.0305778 116.91513609 101.25954247 114.89432731 101.2784729 111.95695496 C101.28963638 110.96562561 101.30079987 109.97429626 101.31230164 108.95292664 C101.31446182 107.87686661 101.31662201 106.80080658 101.31884766 105.69213867 C101.32889328 104.55024078 101.3389389 103.4083429 101.34928894 102.23184204 C101.38015949 98.46055602 101.39716713 94.68934113 101.4140625 90.91796875 C101.432771 88.30193976 101.45234417 85.68591683 101.4727478 83.06990051 C101.51949012 76.89001522 101.55625616 70.71011262 101.58942068 64.53014117 C101.62767427 57.49261766 101.67707591 50.45518613 101.72740483 43.41774023 C101.83065702 28.94522601 101.91846766 14.47265335 102 0 C115.2 0 128.4 0 142 0 C142.04526971 15.04765138 142.0820604 30.09526752 142.10362434 45.14297104 C142.11390611 52.13098348 142.12790664 59.11895039 142.15087891 66.10693359 C142.1730573 72.85668618 142.18458502 79.60639153 142.18975449 86.35617828 C142.19343631 88.92523185 142.20062585 91.49428298 142.21146011 94.06331635 C142.2260782 97.67475369 142.22797363 101.28599855 142.22705078 104.89746094 C142.23424133 105.94835403 142.24143188 106.99924713 142.24884033 108.08198547 C142.19322234 128.33090644 135.41625401 146.92884095 121.37890625 161.75 C114.51642338 168.24062419 106.77236778 172.60801779 98 176 C97.03320312 176.39445313 96.06640625 176.78890625 95.0703125 177.1953125 C76.7767233 183.59135958 54.46253764 181.66732901 37.12207031 173.36645508 C20.20211847 164.69508652 9.65139368 150.75435378 3.19140625 133.21484375 C0.33517806 123.94729304 -0.29299572 114.53525762 -0.22705078 104.89746094 C-0.22734283 103.75454086 -0.22763489 102.61162079 -0.22793579 101.43406677 C-0.22655561 97.70075573 -0.21105667 93.96765067 -0.1953125 90.234375 C-0.1915777 87.62835804 -0.18873294 85.02233967 -0.18673706 82.4163208 C-0.1805554 76.28618174 -0.16419017 70.15611521 -0.14403808 64.02600789 C-0.12157502 57.0391739 -0.11065966 50.05233618 -0.10064721 43.06547499 C-0.07982042 28.71027151 -0.04318638 14.35515322 0 0 Z " fill="#FCC71A" transform="translate(411,345)"/>
<path d="M0 0 C7.27338059 5.10758095 15.22982234 11.74869491 19.453125 19.72265625 C19.02534055 23.02097867 17.90793608 24.62308658 15.5390625 26.89453125 C14.94593262 27.47315918 14.35280273 28.05178711 13.74169922 28.64794922 C13.11021973 29.25010254 12.47874023 29.85225586 11.828125 30.47265625 C7.22305886 34.94046606 2.81910327 39.37958162 -1.1171875 44.46484375 C-2.546875 45.72265625 -2.546875 45.72265625 -6.546875 45.72265625 C-7.93776172 44.10370916 -9.26431504 42.42870299 -10.546875 40.72265625 C-21.93764833 30.95133792 -31.88364675 27.58556385 -46.63525391 28.54248047 C-52.1543289 29.06266915 -56.62268814 30.39391721 -60.609375 34.34765625 C-63.10120237 38.68825877 -63.47021167 41.83336875 -62.546875 46.72265625 C-59.68920494 52.91427471 -54.68513513 56.12502287 -48.47265625 58.5234375 C-44.44139149 59.78276803 -40.34794569 60.77137546 -36.24609375 61.76953125 C-17.25866525 66.46015179 4.3975934 73.44140286 15.4296875 90.83984375 C20.57214339 100.00314992 22.83760134 107.57953421 22.765625 118.03515625 C22.76143555 118.86966309 22.75724609 119.70416992 22.75292969 120.56396484 C22.63560215 126.99076816 21.79232664 132.69896105 19.453125 138.72265625 C19.16308594 139.49609375 18.87304688 140.26953125 18.57421875 141.06640625 C11.88370888 157.4147651 0.23225968 165.95111225 -15.546875 172.72265625 C-32.92136129 179.35210172 -59.37041552 178.26676929 -76.67578125 171.09375 C-89.54010973 165.28630327 -105.89873754 155.2066256 -111.78515625 141.9296875 C-112.03652344 141.20136719 -112.28789063 140.47304688 -112.546875 139.72265625 C-111.97356445 139.02873779 -111.97356445 139.02873779 -111.38867188 138.32080078 C-110.2500293 136.94202931 -109.11188907 135.56284289 -107.97412109 134.18334961 C-106.68674882 132.62314052 -105.39800548 131.06406174 -104.10791016 129.50610352 C-101.34663723 126.16341797 -98.5922083 122.8256525 -95.9765625 119.3671875 C-95.29851562 118.47386719 -94.62046875 117.58054687 -93.921875 116.66015625 C-93.35210937 115.88542969 -92.78234375 115.11070312 -92.1953125 114.3125 C-90.546875 112.72265625 -90.546875 112.72265625 -86.546875 112.72265625 C-84.6875 114.6640625 -84.6875 114.6640625 -82.796875 117.28515625 C-74.96906072 127.46418215 -63.75992401 136.02596515 -50.79296875 138.5078125 C-39.80656407 139.55868599 -29.89980619 139.71424504 -20.921875 132.66015625 C-18.75703599 128.03527292 -18.86741179 123.73000469 -19.546875 118.72265625 C-21.80096316 112.74932262 -26.49698762 110.73064928 -32.01953125 108.16015625 C-39.75016127 105.00968909 -47.75995861 102.72116758 -55.8203125 100.58203125 C-72.07548856 96.19773999 -87.52249377 89.20590726 -97.484375 74.91015625 C-104.40692085 62.5502653 -107.17279646 45.24074442 -103.421875 31.47265625 C-97.93926296 16.14164851 -87.74807054 4.13573401 -73.046875 -2.96875 C-69.58665599 -4.51677879 -66.10108194 -5.95627489 -62.546875 -7.27734375 C-61.53625 -7.65375 -60.525625 -8.03015625 -59.484375 -8.41796875 C-40.8079574 -13.4865791 -16.54652262 -9.92283795 0 0 Z " fill="#FDC81A" transform="translate(194.546875,350.27734375)"/>
<path d="M0 0 C5.65722816 -0.1154013 11.31030172 -0.21474767 16.96777344 -0.2746582 C18.88816232 -0.29965487 20.80845751 -0.33366412 22.72851562 -0.37719727 C43.69398468 -0.84031184 43.69398468 -0.84031184 51 5 C54.19598058 8.06704564 56.85042236 11.07850268 57.203125 15.609375 C57.36421258 26.40224281 57.36421258 26.40224281 54 31 C47.91131876 36.95030212 42.29293344 39.34219244 33.95582581 39.33988953 C33.09512985 39.32440567 32.2344339 39.30892181 31.34765625 39.29296875 C30.44752304 39.28872391 29.54738983 39.28447906 28.61997986 39.28010559 C25.76717214 39.26341816 22.91509137 39.22578497 20.0625 39.1875 C18.11915088 39.1724403 16.17579061 39.15875415 14.23242188 39.14648438 C9.48778122 39.11610895 4.74469674 39.05736982 0 39 C0 26.13 0 13.26 0 0 Z " fill="#031E3B" transform="translate(285,449)"/>
<path d="M0 0 C8.1675 -0.0928125 8.1675 -0.0928125 16.5 -0.1875 C18.20220703 -0.21481201 19.90441406 -0.24212402 21.65820312 -0.27026367 C23.03254491 -0.27903909 24.40689459 -0.28668052 25.78125 -0.29296875 C26.82104004 -0.3159906 26.82104004 -0.3159906 27.88183594 -0.33947754 C33.80840798 -0.3425946 39.38646015 0.8179174 44.05859375 4.71875 C44.74115234 5.60046875 44.74115234 5.60046875 45.4375 6.5 C45.91058594 7.0878125 46.38367188 7.675625 46.87109375 8.28125 C49.45476997 12.2148747 49.56558213 16.45963238 49 21 C47.29683502 26.64636216 45.16095129 30.85307848 40 34 C35.65254417 36.19371111 31.625565 36.26215964 26.85546875 36.1953125 C26.17246704 36.19329834 25.48946533 36.19128418 24.7857666 36.18920898 C22.252942 36.17880493 19.72021372 36.15088258 17.1875 36.125 C8.6796875 36.063125 8.6796875 36.063125 0 36 C0 24.12 0 12.24 0 0 Z " fill="#031E3B" transform="translate(285,381)"/>
<path d="M0 0 C4.40439876 3.76536769 6.58078737 7.34391607 7.23828125 13.078125 C7.46394187 19.68166741 5.81890972 24.57309014 1.60546875 29.6953125 C-0.74059638 31.60184718 -3.06484207 31.53127448 -6 31.41796875 C-9.44732253 30.69753221 -10.93932369 28.72736571 -13 26 C-15.83072769 20.10929555 -16.36185492 13.00834619 -14.2421875 6.76953125 C-10.68578926 0.20279592 -7.36230073 -2.28485195 0 0 Z " fill="#F2F7FB" transform="translate(107,597)"/>
<path d="M0 0 C4.11024247 1.24775218 5.81851711 2.75007996 8.5 6.0625 C9.64330513 9.49241538 9.70381651 12.2611416 9.75 15.875 C9.77578125 17.07769531 9.8015625 18.28039062 9.828125 19.51953125 C9.40680775 24.06875446 7.72115885 27.13435445 5.3125 30.9375 C2.2087491 32.86396608 -1.03525833 32.79334395 -4.5 32.0625 C-7.80804256 29.47359713 -9.95283102 26.94746175 -11.5 23.0625 C-12.15836343 16.44466502 -12.62118337 9.60478108 -8.5 4.0625 C-5.57340979 0.89202727 -4.35382184 0.07774682 0 0 Z " fill="#F4F9FC" transform="translate(394.5,595.9375)"/>
<path d="M0 0 C4.64375413 1.49263526 5.78300949 3.12942572 8.5 7.125 C10.37672475 12.75517424 10.47148418 19.49671627 8.25 25.0625 C5.29245283 30.23820755 5.29245283 30.23820755 2.5 32.125 C-2.52325581 32.92234219 -2.52325581 32.92234219 -5.5 32.125 C-8.59109485 29.70818809 -10.26014049 26.84457853 -11.5 23.125 C-11.64619515 20.83648355 -11.72091336 18.54299684 -11.75 16.25 C-11.78867188 14.42855469 -11.78867188 14.42855469 -11.828125 12.5703125 C-11.3648941 7.70638802 -9.54816702 5.23139852 -6.25 1.75 C-3.5 0.125 -3.5 0.125 0 0 Z " fill="#F5F9FC" transform="translate(220.5,595.875)"/>
<path d="M0 0 C3.62453286 2.6629221 5.20645148 4.64726852 6 9 C6.59227252 16.54008478 6.07953086 21.66066106 1.625 27.9375 C0 29 0 29 -2.5625 28.6875 C-3.366875 28.460625 -4.17125 28.23375 -5 28 C-7.02850084 27.88853005 -7.02850084 27.88853005 -8.9375 28.6875 C-11 29 -11 29 -12.6015625 27.8828125 C-15.48945827 23.99463998 -14.57555128 18.59835182 -14 14 C-12.92807127 11.48027142 -11.83991684 10.06990644 -10 8 C-9.278125 8.185625 -8.55625 8.37125 -7.8125 8.5625 C-4.62543759 9.22366086 -4.62543759 9.22366086 0 8 C-0.33 13.28 -0.66 18.56 -1 24 C2.26298719 21.34473425 2.26298719 21.34473425 2.3984375 18.00390625 C2.39070313 16.86824219 2.38296875 15.73257813 2.375 14.5625 C2.38273437 13.42941406 2.39046875 12.29632812 2.3984375 11.12890625 C1.96886084 7.75546601 1.43910076 6.33747156 -1 4 C-4.79103748 3.50856922 -7.23383579 3.66915636 -10.75 5.1875 C-14.73780943 8.39990204 -16.42817643 11.96795256 -17 17 C-17.34850894 22.77217932 -16.86456346 27.52284484 -15 33 C-13.58456585 33.19658808 -12.16755969 33.38187546 -10.75 33.5625 C-9.96109375 33.66691406 -9.1721875 33.77132812 -8.359375 33.87890625 C-5.99467126 34.00027349 -4.2488963 33.69633257 -2 33 C-2 33.99 -2 34.98 -2 36 C-5.65851291 38.34144827 -8.72830036 38.44965259 -13 38 C-16.51826202 35.81085919 -18.55746547 33.86370482 -20 30 C-21.59821079 11.78783058 -21.59821079 11.78783058 -16 5 C-11.35494066 -0.30863925 -6.77291166 -1.42231145 0 0 Z " fill="#F2F7FB" transform="translate(345,597)"/>
<path d="M0 0 C12 0 12 0 15.25 1.9375 C17.57717019 6.01004783 17.78094505 9.4047549 17 14 C16.33730748 15.33531301 15.6710454 16.66886504 15 18 C15.39874077 22.48583364 16.71049832 26.70166106 18 31 C16.02 31 14.04 31 12 31 C11.74605469 30.28972656 11.49210937 29.57945312 11.23046875 28.84765625 C10.88628906 27.92855469 10.54210937 27.00945313 10.1875 26.0625 C9.85105469 25.14597656 9.51460938 24.22945312 9.16796875 23.28515625 C8.16590906 20.6659576 8.16590906 20.6659576 5 20 C5 23.63 5 27.26 5 31 C3.35 31 1.7 31 0 31 C0 20.77 0 10.54 0 0 Z " fill="#EFF5FB" transform="translate(431,597)"/>
<path d="M0 0 C12 0 12 0 15.25 2 C17.49997599 5.8571017 17.71211043 8.63832361 17 13 C16.4740625 14.299375 16.4740625 14.299375 15.9375 15.625 C13.9865107 20.56750622 16.53203085 26.1067695 18 31 C16.02 31 14.04 31 12 31 C11.74605469 30.28972656 11.49210937 29.57945312 11.23046875 28.84765625 C10.88628906 27.92855469 10.54210937 27.00945313 10.1875 26.0625 C9.85105469 25.14597656 9.51460937 24.22945312 9.16796875 23.28515625 C8.16590906 20.6659576 8.16590906 20.6659576 5 20 C5 23.63 5 27.26 5 31 C3.35 31 1.7 31 0 31 C0 20.77 0 10.54 0 0 Z " fill="#F0F6FB" transform="translate(72,597)"/>
<path d="M0 0 C1.65 0 3.3 0 5 0 C7.64 5.28 10.28 10.56 13 16 C13.33 10.72 13.66 5.44 14 0 C15.65 0 17.3 0 19 0 C19 10.23 19 20.46 19 31 C17.35 31 15.7 31 14 31 C11.36 25.72 8.72 20.44 6 15 C5.67 20.28 5.34 25.56 5 31 C3.35 31 1.7 31 0 31 C0 20.77 0 10.54 0 0 Z " fill="#F8FBFD" transform="translate(234,597)"/>
<path d="M0 0 C11 0 11 0 14.1875 1.9375 C16.59471551 6.00486414 16.78620122 9.37382649 16 14 C15.33730748 15.33531301 14.6710454 16.66886504 14 18 C14.39874077 22.48583364 15.71049832 26.70166106 17 31 C15.02 31 13.04 31 11 31 C10.74605469 30.28972656 10.49210937 29.57945312 10.23046875 28.84765625 C9.88628906 27.92855469 9.54210937 27.00945313 9.1875 26.0625 C8.85105469 25.14597656 8.51460938 24.22945312 8.16796875 23.28515625 C7.16590906 20.6659576 7.16590906 20.6659576 4 20 C4 23.63 4 27.26 4 31 C2.68 31 1.36 31 0 31 C0 20.77 0 10.54 0 0 Z " fill="#F8FBFD" transform="translate(501,597)"/>
<path d="M0 0 C1.98 0 3.96 0 6 0 C6.33 7.59 6.66 15.18 7 23 C8.65 23.33 10.3 23.66 12 24 C12.33 16.08 12.66 8.16 13 0 C14.65 0 16.3 0 18 0 C18.1457733 4.04128452 18.23423181 8.08188906 18.3125 12.125 C18.35439453 13.26710938 18.39628906 14.40921875 18.43945312 15.5859375 C18.57763693 25.09298299 18.57763693 25.09298299 15.69921875 28.7578125 C13 31 13 31 9.5 31.75 C4.65384516 30.71153825 3.71678335 29.07517502 1 25 C-0.00005304 21.99984088 -0.11575585 20.02576244 -0.09765625 16.89453125 C-0.09443359 15.91162109 -0.09121094 14.92871094 -0.08789062 13.91601562 C-0.07951172 12.89185547 -0.07113281 11.86769531 -0.0625 10.8125 C-0.05798828 9.77673828 -0.05347656 8.74097656 -0.04882812 7.67382812 C-0.0370401 5.11582734 -0.02058515 2.55794267 0 0 Z " fill="#EAF2FA" transform="translate(408,597)"/>
<path d="M0 0 C11 0 11 0 13.66015625 1.625 C15.34273049 4.60752227 15.50153874 6.58460036 15.4375 10 C15.43621094 11.03125 15.43492188 12.0625 15.43359375 13.125 C14.95040548 16.32884293 14.32507395 17.76024986 12 20 C8.3125 20.25 8.3125 20.25 5 20 C5 23.63 5 27.26 5 31 C3.35 31 1.7 31 0 31 C0 20.77 0 10.54 0 0 Z " fill="#F6F9FC" transform="translate(53,597)"/>
<path d="M0 0 C1.2065625 0.0309375 1.2065625 0.0309375 2.4375 0.0625 C3.43893882 3.99406052 4.43572344 7.92676863 5.42822266 11.8605957 C5.76646471 13.19848409 6.10597359 14.53605288 6.44677734 15.87329102 C6.93660619 17.79619055 7.42149397 19.72034661 7.90625 21.64453125 C8.34614258 23.38053589 8.34614258 23.38053589 8.79492188 25.15161133 C9.4375 28.0625 9.4375 28.0625 9.4375 31.0625 C7.7875 31.0625 6.1375 31.0625 4.4375 31.0625 C4.1075 29.0825 3.7775 27.1025 3.4375 25.0625 C0.7975 25.0625 -1.8425 25.0625 -4.5625 25.0625 C-4.8925 27.0425 -5.2225 29.0225 -5.5625 31.0625 C-7.2125 31.0625 -8.8625 31.0625 -10.5625 31.0625 C-9.58850108 24.85842553 -8.0888022 18.83720996 -6.5625 12.75 C-6.28921875 11.64076172 -6.0159375 10.53152344 -5.734375 9.38867188 C-5.47140625 8.33615234 -5.2084375 7.28363281 -4.9375 6.19921875 C-4.69773437 5.23717529 -4.45796875 4.27513184 -4.2109375 3.28393555 C-3.27567727 0.07989457 -3.27567727 0.07989457 0 0 Z " fill="#F3F8FC" transform="translate(266.5625,596.9375)"/>
<path d="M0 0 C4.95 0 9.9 0 15 0 C15 1.98 15 3.96 15 6 C11.7 6 8.4 6 5 6 C5 7.98 5 9.96 5 12 C7.64 12 10.28 12 13 12 C13 13.98 13 15.96 13 18 C10.36 18 7.72 18 5 18 C5 19.98 5 21.96 5 24 C8.3 24 11.6 24 15 24 C15 26.31 15 28.62 15 31 C10.05 31 5.1 31 0 31 C0 20.77 0 10.54 0 0 Z " fill="#F8FBFD" transform="translate(579,597)"/>
<path d="M0 0 C1.9375 1.5625 1.9375 1.5625 3 3 C2.34 4.65 1.68 6.3 1 8 C-1.64 7.34 -4.28 6.68 -7 6 C-6.42557356 8.44278263 -6.42557356 8.44278263 -5 11 C-3.03384339 12.0650015 -1.03273074 13.06833174 1 14 C3.46597251 17.69895876 3.56897128 20.7076137 3 25 C1.84367254 27.36293002 0.85016245 29.14983755 -1 31 C-3.9339895 31.29339895 -6.14415963 31.50460337 -9 31 C-12 28.5 -12 28.5 -14 26 C-13.34 24.35 -12.68 22.7 -12 21 C-11.443125 21.309375 -10.88625 21.61875 -10.3125 21.9375 C-7.87459567 23.05761821 -5.63775814 23.56037364 -3 24 C-2.67 22.68 -2.34 21.36 -2 20 C-2.9075 19.7525 -3.815 19.505 -4.75 19.25 C-8.73980634 17.7154591 -11.08063798 15.83872404 -13 12 C-13.39447548 7.81855989 -13.45035186 5.69053952 -11.125 2.125 C-7.35065309 -1.64934691 -5.12174487 -1.07826208 0 0 Z " fill="#F1F7FB" transform="translate(474,597)"/>
<path d="M0 0 C4.95 0 9.9 0 15 0 C15 1.98 15 3.96 15 6 C11.7 6 8.4 6 5 6 C5 7.98 5 9.96 5 12 C7.64 12 10.28 12 13 12 C13 13.98 13 15.96 13 18 C10.36 18 7.72 18 5 18 C5 19.98 5 21.96 5 24 C8.3 24 11.6 24 15 24 C15 26.31 15 28.62 15 31 C10.05 31 5.1 31 0 31 C0 20.77 0 10.54 0 0 Z " fill="#F7FAFD" transform="translate(136,597)"/>
<path d="M0 0 C2.4375 1.75 2.4375 1.75 4 4 C3.82246387 7.01811422 3.16264785 7.83735215 1 10 C0.34 9.34 -0.32 8.68 -1 8 C-3.57061311 7.35232207 -3.57061311 7.35232207 -6 7 C-5.42557356 9.44278263 -5.42557356 9.44278263 -4 12 C-2.02583732 13.05008653 -0.02417134 14.04987876 2 15 C3.9375 16.625 3.9375 16.625 5 19 C5.19177612 23.33094408 4.70651985 26.84130745 2.4375 30.5625 C-1.05445086 32.62185563 -4.0461352 32.8004757 -8 32 C-10.5625 30.3125 -10.5625 30.3125 -12 28 C-11.83849795 24.60845705 -11.41703243 23.41703243 -9 21 C-8.608125 21.639375 -8.21625 22.27875 -7.8125 22.9375 C-5.61527704 25.43778819 -4.24208567 25.64950425 -1 26 C-1.03093173 23.58414426 -1.03093173 23.58414426 -2 21 C-4.86656967 19.31668061 -4.86656967 19.31668061 -8 18 C-10.19623845 16.3089995 -10.91061856 15.43945876 -11.46875 12.6953125 C-11.52399405 8.15148908 -11.49098868 5.72204217 -8.875 1.875 C-5.48818314 -0.3337936 -3.96139166 -0.75856436 0 0 Z " fill="#F2F7FB" transform="translate(185,596)"/>
<path d="M0 0 C2.4375 1.75 2.4375 1.75 4 4 C3.75 6.25 3.75 6.25 3 8 C-0.27275026 8 -2.846632 7.70074844 -6 7 C-5.42557356 9.44278263 -5.42557356 9.44278263 -4 12 C-1.04990627 13.72512465 -1.04990627 13.72512465 2 15 C4.58399406 17.58399406 4.3268593 18.78370365 4.375 22.375 C4.29301886 25.85008943 4.20913019 27.62530841 2.5 30.6875 C-1.05842152 32.5556713 -4.06775475 32.78805733 -8 32 C-10.5625 30.375 -10.5625 30.375 -12 28 C-11.75 24.75 -11.75 24.75 -11 22 C-10.01 22 -9.02 22 -8 22 C-7.34 22.99 -6.68 23.98 -6 25 C-3.43717258 25.72965366 -3.43717258 25.72965366 -1 26 C-1.03093173 23.58414426 -1.03093173 23.58414426 -2 21 C-4.86656967 19.31668061 -4.86656967 19.31668061 -8 18 C-10.19623845 16.3089995 -10.91061856 15.43945876 -11.46875 12.6953125 C-11.52399405 8.15148908 -11.49098868 5.72204217 -8.875 1.875 C-5.48818314 -0.3337936 -3.96139166 -0.75856436 0 0 Z " fill="#F3F8FC" transform="translate(308,596)"/>
<path d="M0 0 C2.4375 1.75 2.4375 1.75 4 4 C3.82246387 7.01811422 3.16264785 7.83735215 1 10 C0.34 9.34 -0.32 8.68 -1 8 C-3.57061311 7.35232207 -3.57061311 7.35232207 -6 7 C-5.42557356 9.44278263 -5.42557356 9.44278263 -4 12 C-1.04990627 13.72512465 -1.04990627 13.72512465 2 15 C4.58399406 17.58399406 4.3268593 18.78370365 4.375 22.375 C4.29301886 25.85008943 4.20913019 27.62530841 2.5 30.6875 C-1.05437301 32.55354583 -4.07187121 32.79526534 -8 32 C-10.5625 30.3125 -10.5625 30.3125 -12 28 C-11.83849795 24.60845705 -11.41703243 23.41703243 -9 21 C-8.608125 21.639375 -8.21625 22.27875 -7.8125 22.9375 C-5.61527704 25.43778819 -4.24208567 25.64950425 -1 26 C-1.03093173 23.58414426 -1.03093173 23.58414426 -2 21 C-4.86656967 19.31668061 -4.86656967 19.31668061 -8 18 C-10.19623845 16.3089995 -10.91061856 15.43945876 -11.46875 12.6953125 C-11.52399405 8.15148908 -11.49098868 5.72204217 -8.875 1.875 C-5.48818314 -0.3337936 -3.96139166 -0.75856436 0 0 Z " fill="#F4F8FC" transform="translate(166,596)"/>
<path d="M0 0 C4.95 0 9.9 0 15 0 C15 1.98 15 3.96 15 6 C11.7 6 8.4 6 5 6 C5 7.98 5 9.96 5 12 C7.64 12 10.28 12 13 12 C13 13.98 13 15.96 13 18 C10.36 18 7.72 18 5 18 C5 20.31 5 22.62 5 25 C8.3 25 11.6 25 15 25 C15 26.98 15 28.96 15 31 C10.05 31 5.1 31 0 31 C0 20.77 0 10.54 0 0 Z " fill="#F9FBFD" transform="translate(481,597)"/>
<path d="M0 0 C2.875 2.5 2.875 2.5 5 5 C4.01 6.65 3.02 8.3 2 10 C1.01 9.34 0.02 8.68 -1 8 C-3.58333333 8.08333333 -3.58333333 8.08333333 -6 9 C-8.08133467 12.122002 -8.2737822 12.93266989 -8.25 16.5 C-8.25515625 17.2734375 -8.2603125 18.046875 -8.265625 18.84375 C-8.12738062 21.29513844 -8.12738062 21.29513844 -6 24 C-2.58410104 24.29071481 -0.26157733 24.08719244 3 23 C3.33 25.31 3.66 27.62 4 30 C0.3202308 32.45317946 -2.72632611 32.81800789 -7 32 C-10.78800003 29.11782607 -12.52490015 26.45764824 -14 22 C-14.86558368 14.61234395 -14.57351708 8.97098063 -10 3 C-6.88780377 -0.21593611 -4.40939625 -0.71990143 0 0 Z " fill="#F3F7FC" transform="translate(571,596)"/>
<path d="M0 0 C1.98 0 3.96 0 6 0 C7.65 5.94 9.3 11.88 11 18 C12.65 12.06 14.3 6.12 16 0 C17.65 0 19.3 0 21 0 C16.30964467 21.07106599 16.30964467 21.07106599 13 31 C11.35 31 9.7 31 8 31 C6.85388251 26.58340702 5.70815499 22.16671297 4.5625 17.75 C4.23701172 16.49574219 3.91152344 15.24148438 3.57617188 13.94921875 C3.26357422 12.74394531 2.95097656 11.53867187 2.62890625 10.296875 C2.34088135 9.18666992 2.05285645 8.07646484 1.75610352 6.93261719 C1.16088464 4.62400592 0.57359028 2.31405522 0 0 Z " fill="#F1F7FB" transform="translate(518,597)"/>
<path d="M0 0 C4.62 0 9.24 0 14 0 C14 2.31 14 4.62 14 7 C11.03 7 8.06 7 5 7 C5 8.98 5 10.96 5 13 C7.64 13 10.28 13 13 13 C13 14.98 13 16.96 13 19 C10.36 19 7.72 19 5 19 C5 22.96 5 26.92 5 31 C3.35 31 1.7 31 0 31 C0 20.77 0 10.54 0 0 Z " fill="#F5F9FC" transform="translate(118,597)"/>
<path d="M0 0 C1.98 0 3.96 0 6 0 C7.32 2.64 8.64 5.28 10 8 C12.01136276 5.44008376 13.62845496 2.95409701 15 0 C16.98 0 18.96 0 21 0 C20.50628906 0.98097656 20.01257813 1.96195313 19.50390625 2.97265625 C14.89965207 12.52681145 12.89291171 20.35236475 13 31 C11.35 31 9.7 31 8 31 C8.00902344 30.07960938 8.01804687 29.15921875 8.02734375 28.2109375 C7.81099265 18.97368619 6.01956655 12.78534486 1.49609375 4.73046875 C0 2 0 2 0 0 Z " fill="#F6FAFD" transform="translate(362,597)"/>
<path d="M0 0 C3.96 0 7.92 0 12 0 C12 1.98 12 3.96 12 6 C10.68 6 9.36 6 8 6 C8 12.27 8 18.54 8 25 C9.32 25 10.64 25 12 25 C12 26.98 12 28.96 12 31 C8.04 31 4.08 31 0 31 C0 29.02 0 27.04 0 25 C0.99 25 1.98 25 3 25 C3 18.73 3 12.46 3 6 C2.01 6 1.02 6 0 6 C0 4.02 0 2.04 0 0 Z " fill="#F9FCFD" transform="translate(542,597)"/>
<path d="M0 0 C3.96 0 7.92 0 12 0 C12 1.98 12 3.96 12 6 C11.01 6 10.02 6 9 6 C9 12.27 9 18.54 9 25 C9.99 25 10.98 25 12 25 C12 26.98 12 28.96 12 31 C8.04 31 4.08 31 0 31 C0 29.02 0 27.04 0 25 C1.32 25 2.64 25 4 25 C4 18.73 4 12.46 4 6 C2.68 6 1.36 6 0 6 C0 4.02 0 2.04 0 0 Z " fill="#F9FBFD" transform="translate(193,597)"/>
<path d="M0 0 C3.61998871 2.65958354 5.21852403 4.64717885 6 9 C6.11555812 10.85161729 6.17487975 12.70732319 6.1875 14.5625 C6.20167969 15.51253906 6.21585937 16.46257813 6.23046875 17.44140625 C6 20 6 20 4 23 C3.34 23 2.68 23 2 23 C2.03480469 21.96359375 2.06960938 20.9271875 2.10546875 19.859375 C2.13361482 18.48959958 2.16091411 17.11980659 2.1875 15.75 C2.21263672 15.06808594 2.23777344 14.38617187 2.26367188 13.68359375 C2.30933333 10.54817382 2.17862889 8.33741012 0.69921875 5.54296875 C-1.04055226 3.66787291 -1.04055226 3.66787291 -4.375 3.5625 C-8.20593581 4.02485432 -10.01735054 4.59731016 -13 7 C-17.26742279 12.79150235 -17.51059483 19.02978692 -17 26 C-16.48964219 28.42752804 -15.80163517 30.64519668 -15 33 C-13.58456585 33.19658808 -12.16755969 33.38187546 -10.75 33.5625 C-9.96109375 33.66691406 -9.1721875 33.77132812 -8.359375 33.87890625 C-5.99467126 34.00027349 -4.2488963 33.69633257 -2 33 C-2 33.99 -2 34.98 -2 36 C-5.65851291 38.34144827 -8.72830036 38.44965259 -13 38 C-16.51826202 35.81085919 -18.55746547 33.86370482 -20 30 C-21.59821079 11.78783058 -21.59821079 11.78783058 -16 5 C-11.35494066 -0.30863925 -6.77291166 -1.42231145 0 0 Z " fill="#EEF5FB" transform="translate(345,597)"/>
<path d="M0 0 C1.65 0 3.3 0 5 0 C5 7.92 5 15.84 5 24 C8.3 24 11.6 24 15 24 C15 26.31 15 28.62 15 31 C10.05 31 5.1 31 0 31 C0 20.77 0 10.54 0 0 Z " fill="#F4F9FC" transform="translate(279,597)"/>
<path d="M0 0 C2.375 0.3125 2.375 0.3125 5 1 C7.13749925 4.20624887 7.29574999 5.22458103 7.3125 8.9375 C7.33763672 10.21947266 7.33763672 10.21947266 7.36328125 11.52734375 C6.92809899 14.48939075 6.05074203 15.84647615 4 18 C1.5 18.5625 1.5 18.5625 -1 18 C-4.05243018 14.63180118 -4.51224758 11.32157202 -4.37109375 6.9375 C-3.79141066 3.91094406 -2.13191452 2.13191452 0 0 Z " fill="#1374C6" transform="translate(392,603)"/>
<path d="M0 0 C2.63931623 1.36222773 3.56924727 2.33190718 4.9375 5 C5.35334819 9.366406 5.35656991 11.94129706 3.75 16 C1.9375 18 1.9375 18 -0.5625 18.5625 C-3.0625 18 -3.0625 18 -4.69140625 16.27734375 C-7.03273448 12.38847094 -6.72580984 8.39533884 -6.0625 4 C-4.22042467 1.1710986 -3.4307285 0 0 0 Z " fill="#1374C6" transform="translate(220.0625,603)"/>
<path d="M0 0 C2.375 0.3125 2.375 0.3125 5 1 C7.13749925 4.20624887 7.29574999 5.22458103 7.3125 8.9375 C7.33763672 10.21947266 7.33763672 10.21947266 7.36328125 11.52734375 C6.92809899 14.48939075 6.05074203 15.84647615 4 18 C1.5 18.5625 1.5 18.5625 -1 18 C-4.05243018 14.63180118 -4.51224758 11.32157202 -4.37109375 6.9375 C-3.79141066 3.91094406 -2.13191452 2.13191452 0 0 Z " fill="#1474C6" transform="translate(101,603)"/>
<path d="M0 0 C0.99 0 1.98 0 3 0 C3.05402274 2.10388569 3.09280256 4.20816714 3.125 6.3125 C3.14820313 7.48425781 3.17140625 8.65601563 3.1953125 9.86328125 C3 13 3 13 1 16 C0.34 16 -0.32 16 -1 16 C-1.09688221 10.55306686 -1.12862175 5.36095333 0 0 Z " fill="#1877C7" transform="translate(345,605)"/>
<path d="M0 0 C2.375 -0.125 2.375 -0.125 5 0 C7 2 7 2 7.1875 4.5625 C7 7 7 7 6 8 C4.00041636 8.04080783 1.99954746 8.04254356 0 8 C0 5.36 0 2.72 0 0 Z " fill="#227CC9" transform="translate(505,603)"/>
<path d="M0 0 C2.375 -0.125 2.375 -0.125 5 0 C7 2 7 2 7.1875 4.5625 C7 7 7 7 6 8 C4.00041636 8.04080783 1.99954746 8.04254356 0 8 C0 5.36 0 2.72 0 0 Z " fill="#217CC9" transform="translate(436,603)"/>
<path d="M0 0 C2.375 -0.125 2.375 -0.125 5 0 C7 2 7 2 7.1875 4.5625 C7 7 7 7 6 8 C4.00041636 8.04080783 1.99954746 8.04254356 0 8 C0 5.36 0 2.72 0 0 Z " fill="#217CC9" transform="translate(77,603)"/>
<path d="M0 0 C0.99 0 1.98 0 3 0 C3.25 6.625 3.25 6.625 1 10 C0.01 10 -0.98 10 -2 10 C-2.25 3.375 -2.25 3.375 0 0 Z " fill="#1D7AC8" transform="translate(337,610)"/>
<path d="M0 0 C1.65 0 3.3 0 5 0 C5 1.98 5 3.96 5 6 C3.35 6.33 1.7 6.66 0 7 C0 4.69 0 2.38 0 0 Z " fill="#1072C5" transform="translate(58,604)"/>
<path d="M0 0 C0.33 0.66 0.66 1.32 1 2 C1.66 2 2.32 2 3 2 C3.25 9.625 3.25 9.625 1 13 C0.34 13 -0.32 13 -1 13 C-0.67 8.71 -0.34 4.42 0 0 Z " fill="#D0E3F3" transform="translate(348,607)"/>
<path d="M0 0 C0.66 0 1.32 0 2 0 C1.34 3.3 0.68 6.6 0 10 C-0.99 10 -1.98 10 -3 10 C-2.25 3.375 -2.25 3.375 0 0 Z " fill="#DDEBF6" transform="translate(328,604)"/>
<path d="M0 0 C0.66 0 1.32 0 2 0 C2.33 2.31 2.66 4.62 3 7 C1.68 7 0.36 7 -1 7 C-0.67 4.69 -0.34 2.38 0 0 Z " fill="#267FCA" transform="translate(265,609)"/>
</svg>
