<svg xmlns="http://www.w3.org/2000/svg" width="24.853" height="25.4" viewBox="0 0 24.853 25.4"><defs><style>.a{fill:#fff}</style></defs><path class="a" d="M.729 8.515c-.855 2.068-1.819 5.364 2.584 7.92 3.9 2.266 12.975 5.866 14.359 6.572s1.985 1.7.368 2.394c2.113-.707 2.587-1.493 2.587-2.349 0-.678-.3-1.561-3.539-2.987s-10.752-4.764-13.68-6.566S.234 10.267.729 8.515z"/><path class="a" d="M18.453 23.505c.761.629.852 1.356-.412 1.9 2.112-.707 2.587-1.493 2.587-2.349a1.538 1.538 0 00-.454-1.107zM.73 8.515c-.6 1.456-1.258 3.52-.057 5.507l1.081-1.75A3.305 3.305 0 01.73 8.515zm13.659 6.635c4.689 2.015 10.7 4.279 8.211 7.159 1.768-1.545 1.757-2.707 1.757-3.322 0-2.847-4.821-4.421-11.217-7.235C8.68 9.789.865 6.352 4.917 2.741c-.525.4-2.877 2.3-2.877 4-.044 2.532 4.025 4.831 12.349 8.409z"/><path class="a" d="M4.566 6.666a2.521 2.521 0 01.351-3.925c-.525.4-2.877 2.3-2.877 4a2.827 2.827 0 00.659 1.776zm17.531 12.423c1.127.988 1.512 2.053.5 3.219 1.768-1.545 1.757-2.707 1.757-3.322a2.7 2.7 0 00-.716-1.781zM19.569 3.258a.428.428 0 00-.171-.042c-.107.006-.062.077-.018.118.118.111.431.219.437.132 0-.056-.127-.156-.247-.208m-.718-.546a.479.479 0 00-.175-.037c-.111.009-.068.079-.012.125.135.11.446.193.429.095-.009-.051-.119-.135-.242-.182m-.73-.52a.475.475 0 00-.17-.029c-.107.01-.069.076-.018.117.131.105.458.183.44.084-.009-.053-.12-.128-.252-.171m-.742-.488a.557.557 0 00-.166-.024c-.106.011-.069.068-.03.1.119.1.464.174.447.075-.009-.056-.136-.12-.252-.152m.779 1.058a.377.377 0 00-.166-.013c-.1.018-.09.085.014.157.153.106.443.144.414.033-.016-.061-.136-.142-.262-.177m-.746-.5a.4.4 0 00-.176-.013c-.118.029-.055.108.016.153.15.1.429.13.417.03-.007-.059-.122-.136-.258-.17m-.727.045a.35.35 0 00-.17.008c-.1.037-.078.126.053.19.189.094.432.063.387-.048a.372.372 0 00-.269-.15m-.04-.516a.44.44 0 00-.177-.009c-.122.031-.053.108.019.148.156.088.433.105.407 0-.014-.053-.121-.115-.249-.143m.029-.511a.662.662 0 00-.192-.024c-.114.012-.066.063-.048.079.12.106.471.16.459.071-.006-.041-.1-.093-.219-.125m-.782.571a.383.383 0 00-.174.01c-.1.037-.078.125.05.181.164.072.417.053.385-.054-.018-.06-.131-.12-.261-.137m-.788-.414a.41.41 0 00-.172.016c-.116.047-.071.122.036.166.169.068.426.042.39-.063-.02-.057-.127-.107-.255-.119m.781-.07a.485.485 0 00-.174 0c-.114.029-.07.09-.014.123.144.086.464.105.432 0-.015-.05-.121-.1-.245-.124m-1.555-.3a.484.484 0 00-.185.02c-.127.05-.065.109-.008.135.152.072.459.043.419-.062-.018-.047-.111-.086-.225-.094m.805-.077a.551.551 0 00-.188 0c-.084.018-.1.057-.044.1.13.09.462.094.45.006-.006-.043-.1-.088-.219-.105m.788-.1a.663.663 0 00-.175-.015c-.1.01-.088.038-.063.061.1.09.473.137.459.058-.007-.043-.12-.084-.222-.1M14.361.663a.629.629 0 00-.178.007c-.123.03-.072.071-.054.083.115.074.456.069.45-.007 0-.037-.1-.073-.219-.083m-.828.084a.524.524 0 00-.176.025c-.121.047-.072.1-.025.118.139.063.461.026.425-.07-.016-.042-.108-.072-.224-.073m1.652-.184a.833.833 0 00-.174-.01c-.1.009-.092.032-.071.05.087.074.472.108.457.041-.006-.03-.092-.062-.212-.081M12.757.501a.6.6 0 00-.169.028c-.086.031-.087.075-.038.1.111.054.45.013.428-.073-.012-.046-.126-.058-.221-.054m.866-.087a.831.831 0 00-.186.01c-.107.025-.073.057-.061.066.086.063.461.046.445-.02-.007-.029-.083-.051-.2-.057m.84-.103a1.049 1.049 0 00-.173-.006c-.084.008-.087.025-.074.038.059.059.455.085.45.029 0-.027-.1-.05-.2-.061M12.859.238a.957.957 0 00-.166.015c-.065.013-.092.036-.066.054.069.048.441.02.438-.033 0-.029-.108-.038-.206-.036m-.852.112a.772.772 0 00-.184.033c-.07.024-.092.059-.05.08.084.041.443-.007.426-.079-.007-.029-.079-.042-.192-.034m1.715-.222a1.253 1.253 0 00-.156 0c-.059 0-.089.016-.079.028a.9.9 0 00.443.014c0-.018-.085-.036-.208-.042M12.126.14a1.3 1.3 0 00-.161.02c-.081.018-.08.031-.072.038a.845.845 0 00.425-.043c0-.016-.081-.022-.193-.015m-.902.204a.93.93 0 00-.149.033c-.1.036-.066.057-.058.061.07.037.424-.035.417-.085 0-.025-.108-.024-.209-.009m1.779-.318c-.078 0-.126 0-.147.005-.051 0-.078.01-.081.017a1.293 1.293 0 00.429 0 .735.735 0 00-.2-.018m-.679-.025l-.153.011a.62.62 0 00-.085.011A3.66 3.66 0 0012.5.003a1.161 1.161 0 00-.175 0m-.909.12c-.07.008-.125.019-.152.024-.054.011-.077.019-.082.025a1.248 1.248 0 00.414-.055.682.682 0 00-.18.005m-.911.232a1.172 1.172 0 00-.148.038c-.082.028-.085.041-.073.046.058.025.42-.058.407-.094 0-.014-.089-.01-.187.009m.205-.159l-.147.028a.706.706 0 00-.075.018 3.817 3.817 0 00.387-.071 1.434 1.434 0 00-.165.024m-.918.236c-.075.019-.127.036-.147.042-.071.024-.074.031-.075.033a1.3 1.3 0 00.385-.1.734.734 0 00-.163.028m-.705.162L8.943.64a.564.564 0 00-.072.026c.027 0 .353-.11.367-.117-.011 0-.089.024-.152.044m12.606 2.548a.873.873 0 10.873.873.874.874 0 00-.873-.873z"/><path class="a" d="M21.306 3.566a2.57 2.57 0 00-.641-.492c-.441-.26-1.139-.393-1.556-.652A30.765 30.765 0 0015.62.177a13.283 13.283 0 016.291 3.151c.306.251-.109.71-.605.238z"/><path class="a" d="M22.242 3.636a13.136 13.136 0 012.61 3.532c-.448-.347-1.927-.835-1.993-1.984-.03-.528-.522-.805-.612-.915-.346-.422-.097-.722-.005-.633zM21.12 4.674a6.607 6.607 0 01-1.021-1.416c-.061-.1-.113.019-.041-.212s.1-.036.207 0a2.625 2.625 0 001.428.094 11.9 11.9 0 01-.573 1.534z"/></svg>